<svg xmlns="http://www.w3.org/2000/svg" width="1559" height="1559" viewBox="0 0 1559 1559" fill="none">
    <path d="M389.75 0C604.892 0 779.5 174.434 779.5 389.361V584.04C779.5 691.504 866.804 778.721 974.375 778.721C1081.95 778.721 1169.25 865.938 1169.25 973.401C1169.25 1080.86 1256.55 1168.08 1364.13 1168.08C1471.7 1168.08 1559 1255.3 1559 1362.76V1364.32C1559 1471.78 1471.7 1559 1364.13 1559H584.625C477.054 1559 389.75 1471.78 389.75 1364.32C389.75 1256.86 302.446 1169.64 194.875 1169.64C87.304 1169.64 0 1082.42 0 974.959V390.918C0 174.434 174.608 0 389.75 0Z" fill="#FBF3FF"/>
</svg>